<?xml version="1.0" encoding="UTF-8" standalone="no"?>
<svg
   version="1.0"
   width="490.000000pt"
   height="276.000000pt"
   viewBox="0 0 490.000000 276.000000"
   preserveAspectRatio="xMidYMid meet"
   id="svg31"
   sodipodi:docname="NovaW.svg"
   inkscape:version="1.2 (dc2aedaf03, 2022-05-15)"
   xmlns:inkscape="http://www.inkscape.org/namespaces/inkscape"
   xmlns:sodipodi="http://sodipodi.sourceforge.net/DTD/sodipodi-0.dtd"
   xmlns="http://www.w3.org/2000/svg"
   xmlns:svg="http://www.w3.org/2000/svg">
  <defs
     id="defs35" />
  <sodipodi:namedview
     id="namedview33"
     pagecolor="#ffffff"
     bordercolor="#999999"
     borderopacity="1"
     inkscape:showpageshadow="0"
     inkscape:pageopacity="0"
     inkscape:pagecheckerboard="0"
     inkscape:deskcolor="#d1d1d1"
     inkscape:document-units="pt"
     showgrid="false"
     inkscape:zoom="1.3423913"
     inkscape:cx="327.02834"
     inkscape:cy="184"
     inkscape:window-width="1366"
     inkscape:window-height="697"
     inkscape:window-x="-8"
     inkscape:window-y="-8"
     inkscape:window-maximized="1"
     inkscape:current-layer="svg31" />
  <metadata
     id="metadata23">
Created by potrace 1.16, written by Peter Selinger 2001-2019
</metadata>
  <g
     transform="translate(0.000000,276.000000) scale(0.100000,-0.100000)"
     fill="#ffffff"
     stroke="none"
     id="g29">
    <path
       id="path25"
       d="m 1408.8721,2675.376 c -41.125,1.875 -84.8682,-1.3711 -119.8682,-10.3711 C 848.00435,2554.005 406.99988,1902.9993 285,1185 253.00003,994.00019 245.99904,876.00475 258.99902,745.00488 287.99899,459.00517 384.00116,288.99796 566.00098,202.99805 c 77.99992,-36.99997 81.00111,-38.00098 221.00097,-41.00098 129.99987,-4 149.99423,-1.99802 233.99415,22.00195 110.9999,31.99997 261.0001,106.99617 360,180.9961 83.9999,61.99994 212.004,186.00984 269.0039,260.00976 36,46.99996 165.9981,248.98928 172.998,268.98926 2,5 17.003,0.007 33.003,-12.99316 87.9999,-64.99994 201.0059,-29.00672 276.0058,87.99316 22,34.99996 27.9932,40.01266 27.9932,23.0127 0,-64.99994 47.9972,-102.01172 131.9971,-102.01172 68.9999,1 125.0059,27.00982 171.0058,80.00976 20,23.99998 37.9903,41.99412 39.9903,38.99412 2,-2 9.0068,-19.00195 17.0068,-37.00193 C 2540,920.99712 2573.9971,900 2636.9971,900 c 48.9999,0 59.0039,3.99905 89.0039,33.99902 33.9999,33.99997 44.0039,35.00583 44.0039,6.00586 0,-29.99997 38.9961,-69.01075 75.9961,-76.01074 49.9999,-8.99999 112.9942,18.00006 173.9941,75 38,35.99996 53.0117,44.99901 57.0117,33.99902 3,-7.99999 3.9961,-146.9982 0.9961,-307.99804 -3,-197.9998 -2.0088,-296.99513 5.9912,-304.99512 13,-12.99999 43.0059,-12.99999 51.0059,0 3,4.99999 11.9951,77.99715 19.9951,161.99707 38,392.99961 64.9991,523.00593 123.999,606.00583 40,55 68.0128,62.9971 98.0127,26.9971 37,-43 28.998,-85.003 -22.0019,-108.0029 -65,-30 -95.0098,-64.9991 -95.0098,-108.99905 0,-47.99996 24.0059,-62.00097 96.0059,-56.00098 64.9999,5.99999 88.9961,24.00593 120.9961,96.00586 18,40.99997 31.0078,55.99807 58.0078,67.99807 47.9999,20 54.9902,17.9921 54.9902,-13.0078 1,-108.99993 118.9992,-194.99318 243.999,-177.9932 100.9999,12.99999 259.0128,88.99324 338.0127,162.9932 15,14 29.9922,24.0058 31.9922,21.0058 2,-2 17.9952,-39.00197 34.9951,-82.00193 L 4270.0049,880.00488 4245,824.00391 c -14,-30.99997 -25.0049,-58.00001 -25.0049,-60 0,-2 9.9981,-3.99903 22.9981,-3.99903 16.9999,0 26.0078,11.002 43.0078,52.00196 24,57.99994 14.9943,53.9883 158.9941,77.98828 87.9999,13.99998 116.9981,31.99808 112.9981,67.99804 -3,25.99998 -5.9874,27.00001 -66.9873,30 -35,2 -77.0069,-0.98731 -92.0069,-6.9873 -16,-5 -29.0039,-6.00683 -29.0039,-2.00684 0,13.99999 56.0049,85.00588 100.0049,126.00588 49,45.9999 90,124.9981 90,172.998 0,27 -3.9981,31.9922 -22.998,31.9922 -44,0 -137.0069,-120.9893 -137.0069,-178.9892 0,-23 -71.0019,-141.00003 -82.0019,-135.00004 -4,3 -7.9981,21.00104 -7.9981,41.00094 0,47 -33.999,115.9932 -63.999,132.9932 -38,20 -56.001,7.0058 -56.001,-38.9941 0,-40 -0.9971,-41.0069 -86.9971,-92.0069 -124.9998,-73.9999 -190.003,-99.99608 -258.0029,-105.99607 -54.9999,-5 -63.9922,-3.00877 -91.9922,20.99121 -37.9999,31.99997 -56,80.01076 -45,121.01076 8,28 12.003,29.9941 78.003,38.9941 92.9999,11 134.9902,23.004 159.9902,44.0039 83.9999,68 -23.9972,143.998 -161.9971,112.9981 -64.9999,-15 -109.0039,-43.9981 -149.0039,-97.9981 -32,-43.9999 -89.999,-82.998 -123.999,-82.998 -14,0 -22.9971,7.9932 -26.9971,27.9931 -24,96.9999 -102.9923,138.0088 -196.9922,99.0088 C 3253.0069,1202.0069 3180,1127.997 3180,1106.9971 c 0,-8 -4.0049,-6.9971 -10.0049,3.0029 -5,8 -9.9902,29.0069 -9.9902,47.0068 0,53 -16.004,82.9981 -44.0039,82.9981 -35,0 -45.9961,-26.003 -45.9961,-108.0029 v -69.0088 l -59.0039,-55.9864 c -65,-61.9999 -103.9981,-78.00873 -127.9981,-54.00875 -12,11.99998 -14.9961,46.99817 -15.9961,172.99805 L 2865,1285.0049 h -40.0049 c -44.9999,0 -42.9952,3.993 -94.9951,-182.0069 -20,-71.9999 -60.001,-132.99312 -86.001,-132.99312 -29.9999,0 -47.999,60.98932 -48.999,163.98922 0,81 -3.0068,100.9991 -17.0068,108.9991 -30,18.9999 -63.9922,-5.9972 -76.9922,-56.9971 -6,-24 -11.001,-56.9932 -11.001,-72.9932 0,-18 -13.0029,-41.0029 -33.0029,-63.0029 -85.9999,-91.99991 -127.9923,-109.00191 -166.9922,-67.00195 -20,19.99995 -21.0029,30.99715 -18.0029,146.99705 l 3.0029,125.0098 -33.0029,2.9883 c -21,2 -41.002,-2.9932 -52.002,-12.9932 -14,-13 -22.9942,-14.0059 -38.9941,-6.0059 -11,6 -46.003,11.001 -78.003,11.001 -105.9999,0 -200.0068,-73.9903 -242.0068,-189.9902 C 1805.9961,992.00495 1635.9999,731.99991 1560,645 1435.0001,504.00014 1294.0067,397.99405 1112.0068,308.99414 912.00704,210.99424 764.00183,196.00299 637.00195,258.00293 395.0022,377.00281 313.00596,727.00538 411.00586,1225.0049 c 61.99994,315.9997 185.99627,617.0012 360.99609,881.001 159.99984,241.9997 349.99135,414.9922 530.99125,481.9921 138.9998,52 197.0068,12.0038 197.0068,-135.996 0,-120.9999 -45.007,-271.0042 -167.0068,-554.004 -82,-191.9998 -82.998,-207.9931 -22.9981,-207.9931 37,0 60.0001,28.9952 120,154.9951 104.9999,218.9998 171.002,453.0021 172.002,607.002 1,85.9999 -1.9903,100.9912 -24.9903,140.9912 -16.9999,27.9999 -40.0137,51.0068 -64.0136,62.0068 -24.5,11.5 -62.9962,18.501 -104.1211,20.376 z M 3849.4482,1214.1943 c 10.6616,0.092 13.9417,-11.3494 0.8643,-16.3476 -6.4099,-2.4499 -12.4256,-5.7448 -18.6182,-8.6865 -14.9875,-7.1196 -22.1849,8.0375 -7.1923,15.1464 6.0871,2.8864 12.0247,6.1425 18.3251,8.5401 2.4231,0.922 4.6468,1.3305 6.6211,1.3476 z M 2092.002,1177.998 c 26.9999,-3 50.9941,-8.0009 53.9941,-11.0009 15,-14 -86.9971,-180.99128 -131.9971,-215.99124 -104.9999,-82.99992 -104.9999,104.98744 0,201.98734 27,25.9999 36.003,29.0048 78.003,25.0048 z"
       style="fill:#000000" />
    <path
       d="M3896 1463 c-50 -80 -61 -153 -22 -153 17 0 146 163 146 184 0 17 -22 26 -60 26 -24 0 -34 -9 -64 -57z"
       id="path27"
       style="fill:#ffffff" />
  </g>
</svg>
