<svg xmlns="http://www.w3.org/2000/svg" xmlns:xlink="http://www.w3.org/1999/xlink" width="50" zoomAndPan="magnify" viewBox="0 0 375 374.999991" height="50" preserveAspectRatio="xMidYMid meet" version="1.0"><defs><g/><clipPath id="5edfd7a775"><path d="M 224.769531 170 L 237.519531 170 L 237.519531 187.414062 L 224.769531 187.414062 Z M 224.769531 170 " clip-rule="nonzero"/></clipPath></defs><rect x="-37.5" width="45" fill="#618862" y="-37.499999" height="500" fill-opacity="1"/><rect x="-37.5" width="45" fill="#618862" y="-37.499999" height="50" fill-opacity="1"/><g fill="#ffff" fill-opacity="1"><g transform="translate(109.273459, 186.599988)"><g><path d="M 49.390625 -11.09375 C 49.546875 -11.03125 49.625 -10.898438 49.625 -10.703125 C 49.625 -10.515625 49.578125 -10.304688 49.484375 -10.078125 C 49.390625 -9.847656 49.316406 -9.65625 49.265625 -9.5 C 47.640625 -5.6875 45.710938 -2.035156 43.484375 1.453125 C 41.265625 4.953125 38.59375 8.03125 35.46875 10.6875 C 33.820312 12.0625 32.082031 13.300781 30.25 14.40625 C 28.414062 15.507812 26.441406 16.4375 24.328125 17.1875 C 22.992188 17.664062 21.773438 18.003906 20.671875 18.203125 C 19.578125 18.398438 18.304688 18.484375 16.859375 18.453125 C 16.035156 18.484375 15.210938 18.460938 14.390625 18.390625 C 13.566406 18.328125 12.734375 18.1875 11.890625 17.96875 C 7.984375 16.851562 5.082031 14.476562 3.1875 10.84375 C 2.539062 9.582031 2.035156 8.300781 1.671875 7 C 1.304688 5.695312 1.035156 4.390625 0.859375 3.078125 C 0.410156 -0.441406 0.394531 -3.898438 0.8125 -7.296875 C 1.363281 -12.015625 2.320312 -16.550781 3.6875 -20.90625 C 5.050781 -25.257812 6.773438 -29.445312 8.859375 -33.46875 C 11.128906 -37.9375 13.925781 -42.023438 17.25 -45.734375 C 19.539062 -48.316406 22.160156 -50.519531 25.109375 -52.34375 C 27.296875 -53.738281 29.734375 -54.65625 32.421875 -55.09375 C 33.597656 -55.300781 34.789062 -55.25 36 -54.9375 C 37.882812 -54.476562 39.085938 -53.316406 39.609375 -51.453125 C 39.972656 -49.941406 39.972656 -48.066406 39.609375 -45.828125 C 39.242188 -43.597656 38.664062 -41.269531 37.875 -38.84375 C 37.09375 -36.414062 36.222656 -34.164062 35.265625 -32.09375 C 34.316406 -30.019531 33.441406 -28.367188 32.640625 -27.140625 C 32.410156 -26.828125 32.128906 -26.632812 31.796875 -26.5625 C 31.460938 -26.5 31.085938 -26.519531 30.671875 -26.625 C 30.460938 -26.675781 30.289062 -26.789062 30.15625 -26.96875 C 30.03125 -27.15625 30.007812 -27.320312 30.09375 -27.46875 C 30.164062 -27.726562 30.265625 -27.976562 30.390625 -28.21875 C 30.453125 -28.34375 30.519531 -28.484375 30.59375 -28.640625 C 30.882812 -29.335938 31.222656 -30.109375 31.609375 -30.953125 C 32.453125 -32.835938 33.328125 -34.898438 34.234375 -37.140625 C 35.148438 -39.390625 35.890625 -41.628906 36.453125 -43.859375 C 37.023438 -46.085938 37.238281 -48.101562 37.09375 -49.90625 C 36.8125 -52.945312 35.265625 -54.082031 32.453125 -53.3125 C 31.210938 -52.976562 30.054688 -52.53125 28.984375 -51.96875 C 27.921875 -51.40625 26.894531 -50.769531 25.90625 -50.0625 C 23.945312 -48.644531 22.160156 -47.070312 20.546875 -45.34375 C 18.941406 -43.613281 17.472656 -41.769531 16.140625 -39.8125 C 9.523438 -30.207031 5.460938 -19.316406 3.953125 -7.140625 C 3.503906 -3.609375 3.515625 -0.0078125 3.984375 3.65625 C 4.242188 5.769531 4.863281 7.84375 5.84375 9.875 C 6.820312 11.882812 7.988281 13.414062 9.34375 14.46875 C 10.695312 15.53125 12.101562 16.226562 13.5625 16.5625 C 15.019531 16.894531 16.394531 16.988281 17.6875 16.84375 C 19.945312 16.582031 22.070312 15.988281 24.0625 15.0625 C 28.019531 13.257812 31.253906 11.335938 33.765625 9.296875 C 36.285156 7.253906 38.394531 5.109375 40.09375 2.859375 C 41.800781 0.617188 43.398438 -1.722656 44.890625 -4.171875 C 45.492188 -5.140625 46.007812 -6.078125 46.4375 -6.984375 C 46.957031 -8.046875 47.632812 -9.234375 48.46875 -10.546875 C 48.75 -10.953125 49.054688 -11.132812 49.390625 -11.09375 Z M 49.390625 -11.09375 "/></g></g></g><g fill="#ffff" fill-opacity="1"><g transform="translate(156.560798, 186.599988)"><g><path d="M 19.890625 -9.03125 C 19.566406 -8.050781 18.925781 -6.925781 17.96875 -5.65625 C 17.019531 -4.382812 15.828125 -3.566406 14.390625 -3.203125 C 12.960938 -2.835938 11.726562 -2.882812 10.6875 -3.34375 C 9.644531 -3.8125 9.070312 -5.050781 8.96875 -7.0625 C 7.78125 -4.769531 6.648438 -3.300781 5.578125 -2.65625 C 4.503906 -2.007812 3.390625 -1.765625 2.234375 -1.921875 C 0.921875 -2.128906 0.0351562 -2.632812 -0.421875 -3.4375 C -0.890625 -4.25 -1.046875 -5.1875 -0.890625 -6.25 C -0.742188 -7.3125 -0.421875 -8.328125 0.078125 -9.296875 C 0.460938 -10.023438 0.992188 -10.695312 1.671875 -11.3125 C 2.359375 -11.9375 3.078125 -12.425781 3.828125 -12.78125 C 4.753906 -13.25 5.6875 -13.46875 6.625 -13.4375 C 7.5625 -13.414062 8.566406 -13.109375 9.640625 -12.515625 C 9.660156 -12.492188 9.671875 -12.519531 9.671875 -12.59375 C 9.671875 -12.695312 9.695312 -12.828125 9.75 -12.984375 C 9.800781 -13.140625 9.890625 -13.265625 10.015625 -13.359375 C 10.367188 -13.617188 10.785156 -13.75 11.265625 -13.75 C 11.742188 -13.75 12.113281 -13.507812 12.375 -13.03125 C 12.425781 -12.40625 12.363281 -11.613281 12.1875 -10.65625 C 11.800781 -8.539062 11.800781 -7.019531 12.1875 -6.09375 C 12.570312 -5.175781 13.253906 -4.75 14.234375 -4.8125 C 15.210938 -4.875 16.476562 -5.835938 18.03125 -7.703125 C 19.59375 -9.578125 20.210938 -10.019531 19.890625 -9.03125 Z M 2.578125 -4.078125 C 3.117188 -3.691406 3.738281 -3.742188 4.4375 -4.234375 C 5.132812 -4.722656 5.804688 -5.421875 6.453125 -6.328125 C 7.097656 -7.234375 7.640625 -8.132812 8.078125 -9.03125 C 8.515625 -9.9375 8.757812 -10.609375 8.8125 -11.046875 C 7.5 -11.742188 6.375 -11.859375 5.4375 -11.390625 C 4.5 -10.929688 3.75 -10.175781 3.1875 -9.125 C 2.632812 -8.082031 2.304688 -7.066406 2.203125 -6.078125 C 2.097656 -5.085938 2.222656 -4.421875 2.578125 -4.078125 Z M 2.578125 -4.078125 "/></g></g></g><g fill="#ffff" fill-opacity="1"><g transform="translate(175.187544, 186.599988)"><g><path d="M 18.171875 -8.84375 C 18.429688 -8.820312 18.390625 -8.46875 18.046875 -7.78125 C 17.703125 -7.09375 17.132812 -6.300781 16.34375 -5.40625 C 15.550781 -4.519531 14.664062 -3.753906 13.6875 -3.109375 C 12.707031 -2.460938 11.734375 -2.171875 10.765625 -2.234375 C 10.035156 -2.304688 9.492188 -2.519531 9.140625 -2.875 C 8.796875 -3.238281 8.5625 -3.640625 8.4375 -4.078125 C 8.3125 -4.523438 8.226562 -4.910156 8.1875 -5.234375 C 8.164062 -5.472656 8.132812 -5.648438 8.09375 -5.765625 C 8.0625 -5.878906 7.992188 -5.882812 7.890625 -5.78125 C 7.140625 -4.0625 5.835938 -3.203125 3.984375 -3.203125 C 2.953125 -3.203125 2.113281 -3.65625 1.46875 -4.5625 C 0.832031 -5.476562 0.425781 -6.625 0.25 -8 C 0.0820312 -9.382812 0.21875 -10.785156 0.65625 -12.203125 C 0.757812 -12.671875 1.046875 -12.992188 1.515625 -13.171875 C 1.835938 -13.296875 2.175781 -13.28125 2.53125 -13.125 C 2.882812 -12.976562 3.070312 -12.753906 3.09375 -12.453125 C 3.09375 -12.128906 3.070312 -11.816406 3.03125 -11.515625 C 2.96875 -11.273438 2.925781 -11.050781 2.90625 -10.84375 C 2.851562 -10 2.863281 -9.070312 2.9375 -8.0625 C 3.019531 -7.0625 3.289062 -6.203125 3.75 -5.484375 C 4.1875 -4.910156 4.675781 -4.835938 5.21875 -5.265625 C 5.757812 -5.691406 6.234375 -6.359375 6.640625 -7.265625 C 6.960938 -7.972656 7.210938 -8.679688 7.390625 -9.390625 C 7.578125 -10.097656 7.691406 -10.648438 7.734375 -11.046875 C 7.785156 -11.203125 7.8125 -11.304688 7.8125 -11.359375 C 7.882812 -11.660156 7.960938 -11.957031 8.046875 -12.25 C 8.179688 -12.6875 8.3125 -13.109375 8.4375 -13.515625 C 8.65625 -14.316406 9.21875 -14.648438 10.125 -14.515625 C 10.675781 -14.472656 10.972656 -14.207031 11.015625 -13.71875 C 11.066406 -13.039062 11.082031 -12.367188 11.0625 -11.703125 C 11.03125 -11.003906 10.992188 -10.320312 10.953125 -9.65625 C 10.890625 -8.675781 10.847656 -7.707031 10.828125 -6.75 C 10.804688 -5.351562 11.082031 -4.539062 11.65625 -4.3125 C 12.238281 -4.082031 12.945312 -4.234375 13.78125 -4.765625 C 14.625 -5.296875 15.429688 -6.007812 16.203125 -6.90625 C 16.273438 -6.988281 16.363281 -7.09375 16.46875 -7.21875 C 16.625 -7.425781 16.8125 -7.648438 17.03125 -7.890625 C 17.257812 -8.140625 17.472656 -8.351562 17.671875 -8.53125 C 17.878906 -8.71875 18.046875 -8.820312 18.171875 -8.84375 Z M 18.171875 -8.84375 "/></g></g></g><g fill="#ffff" fill-opacity="1"><g transform="translate(192.320641, 186.599988)"><g><path d="M 13.375 -8.640625 C 13.914062 -8.773438 14.613281 -9.148438 15.46875 -9.765625 C 16.320312 -10.390625 16.707031 -10.398438 16.625 -9.796875 C 16.539062 -9.203125 16.070312 -8.707031 15.21875 -8.3125 C 14.375 -7.914062 13.597656 -7.628906 12.890625 -7.453125 C 12.703125 -7.390625 12.515625 -7.285156 12.328125 -7.140625 C 12.148438 -7.003906 12.035156 -6.851562 11.984375 -6.6875 C 11.859375 -5.9375 11.601562 -5.238281 11.21875 -4.59375 C 10.207031 -3.019531 8.773438 -2.394531 6.921875 -2.71875 C 6.203125 -2.90625 5.738281 -3.265625 5.53125 -3.796875 C 5.320312 -4.328125 5.425781 -4.914062 5.84375 -5.5625 C 6.414062 -6.3125 7.125 -6.863281 7.96875 -7.21875 C 8.28125 -7.375 8.566406 -7.488281 8.828125 -7.5625 C 8.953125 -7.613281 9.101562 -7.664062 9.28125 -7.71875 C 9.625 -7.90625 9.804688 -8.257812 9.828125 -8.78125 C 9.847656 -9.3125 9.722656 -9.835938 9.453125 -10.359375 C 9.179688 -10.890625 8.804688 -11.253906 8.328125 -11.453125 C 7.847656 -11.648438 7.273438 -11.476562 6.609375 -10.9375 C 5.960938 -10.332031 5.476562 -9.632812 5.15625 -8.84375 C 4.375 -7.25 3.835938 -5.570312 3.546875 -3.8125 C 3.035156 -0.71875 2.679688 2.375 2.484375 5.46875 C 2.398438 6.90625 2.257812 8.332031 2.0625 9.75 C 1.976562 10.351562 1.910156 10.960938 1.859375 11.578125 C 1.828125 11.785156 1.773438 11.992188 1.703125 12.203125 C 1.597656 12.585938 1.3125 12.75 0.84375 12.6875 C 0.363281 12.664062 0.109375 12.453125 0.078125 12.046875 C 0.046875 11.609375 0.046875 11.164062 0.078125 10.71875 C 0.078125 10.613281 0.078125 10.523438 0.078125 10.453125 C 0.109375 9.921875 0.132812 9.378906 0.15625 8.828125 C 0.175781 7.847656 0.203125 6.878906 0.234375 5.921875 C 0.285156 2.003906 0.257812 -1.9375 0.15625 -5.90625 C 0.132812 -7.394531 0.109375 -8.863281 0.078125 -10.3125 C 0.078125 -10.46875 0.078125 -10.625 0.078125 -10.78125 C 0.0234375 -11.289062 0.0507812 -11.789062 0.15625 -12.28125 C 0.257812 -12.78125 0.582031 -13.0625 1.125 -13.125 C 1.6875 -13.1875 2.03125 -12.929688 2.15625 -12.359375 C 2.15625 -12.304688 2.15625 -12.253906 2.15625 -12.203125 C 2.34375 -11.097656 2.515625 -9.644531 2.671875 -7.84375 C 3.078125 -9.050781 3.59375 -10.019531 4.21875 -10.75 C 4.84375 -11.488281 5.578125 -12.035156 6.421875 -12.390625 C 7.117188 -12.710938 7.835938 -12.835938 8.578125 -12.765625 C 9.328125 -12.703125 10.003906 -12.398438 10.609375 -11.859375 C 11.222656 -11.316406 11.640625 -10.503906 11.859375 -9.421875 C 11.972656 -8.953125 12.117188 -8.671875 12.296875 -8.578125 C 12.472656 -8.492188 12.832031 -8.515625 13.375 -8.640625 Z M 8.125 -3.84375 C 8.59375 -4.101562 8.953125 -4.445312 9.203125 -4.875 C 9.460938 -5.300781 9.597656 -5.675781 9.609375 -6 C 9.628906 -6.320312 9.5 -6.441406 9.21875 -6.359375 C 8.488281 -6.078125 7.988281 -5.710938 7.71875 -5.265625 C 7.445312 -4.816406 7.351562 -4.429688 7.4375 -4.109375 C 7.53125 -3.785156 7.757812 -3.695312 8.125 -3.84375 Z M 8.125 -3.84375 "/></g></g></g><g fill="#ffff" fill-opacity="1"><g transform="translate(207.907367, 186.599988)"><g><path d="M 16.953125 -8.484375 C 17.203125 -8.640625 17.453125 -8.757812 17.703125 -8.84375 C 17.953125 -8.925781 18.113281 -8.921875 18.1875 -8.828125 C 18.257812 -8.734375 18.15625 -8.519531 17.875 -8.1875 C 17 -7.1875 15.945312 -6.265625 14.71875 -5.421875 C 13.5 -4.585938 12.242188 -3.882812 10.953125 -3.3125 C 9.941406 -2.851562 8.875 -2.488281 7.75 -2.21875 C 6.632812 -1.945312 5.53125 -1.882812 4.4375 -2.03125 C 3.34375 -2.1875 2.34375 -2.675781 1.4375 -3.5 C 0.0703125 -4.757812 -0.492188 -6.304688 -0.265625 -8.140625 C -0.0664062 -9.585938 0.492188 -10.816406 1.421875 -11.828125 C 2.359375 -12.847656 3.535156 -13.539062 4.953125 -13.90625 C 6.140625 -14.164062 7.328125 -14.195312 8.515625 -14 C 9.046875 -13.914062 9.535156 -13.734375 9.984375 -13.453125 C 10.390625 -13.128906 10.613281 -12.753906 10.65625 -12.328125 C 10.695312 -11.910156 10.535156 -11.507812 10.171875 -11.125 C 9.421875 -10.457031 8.554688 -10.0625 7.578125 -9.9375 C 6.472656 -9.75 5.363281 -9.628906 4.25 -9.578125 C 3.71875 -9.578125 3.34375 -9.460938 3.125 -9.234375 C 2.90625 -9.015625 2.78125 -8.640625 2.75 -8.109375 C 2.570312 -6.640625 3.039062 -5.441406 4.15625 -4.515625 C 4.84375 -3.960938 5.679688 -3.726562 6.671875 -3.8125 C 7.660156 -3.894531 8.710938 -4.160156 9.828125 -4.609375 C 10.941406 -5.066406 12.03125 -5.597656 13.09375 -6.203125 C 14.164062 -6.804688 15.128906 -7.375 15.984375 -7.90625 C 16.347656 -8.144531 16.671875 -8.335938 16.953125 -8.484375 Z M 4.734375 -11.625 C 4.734375 -11.59375 4.710938 -11.578125 4.671875 -11.578125 C 4.628906 -11.535156 4.566406 -11.484375 4.484375 -11.421875 C 4.410156 -11.359375 4.34375 -11.289062 4.28125 -11.21875 C 4.21875 -11.15625 4.1875 -11.113281 4.1875 -11.09375 C 4.207031 -11.007812 4.414062 -10.988281 4.8125 -11.03125 C 5.21875 -11.070312 5.660156 -11.140625 6.140625 -11.234375 C 6.617188 -11.335938 7.019531 -11.472656 7.34375 -11.640625 C 7.664062 -11.816406 7.757812 -12.019531 7.625 -12.25 C 7.570312 -12.320312 7.5 -12.382812 7.40625 -12.4375 C 7.320312 -12.488281 7.226562 -12.523438 7.125 -12.546875 C 6.65625 -12.546875 6.222656 -12.453125 5.828125 -12.265625 C 5.441406 -12.085938 5.078125 -11.875 4.734375 -11.625 Z M 9.40625 -20.796875 C 9.53125 -20.992188 9.703125 -21.117188 9.921875 -21.171875 C 10.140625 -21.222656 10.363281 -21.238281 10.59375 -21.21875 C 10.644531 -21.21875 10.6875 -21.21875 10.71875 -21.21875 C 10.8125 -21.195312 10.910156 -21.1875 11.015625 -21.1875 C 11.554688 -21.050781 11.859375 -20.863281 11.921875 -20.625 C 11.992188 -20.394531 11.929688 -20.148438 11.734375 -19.890625 C 11.535156 -19.640625 11.328125 -19.414062 11.109375 -19.21875 C 10.554688 -18.613281 10.023438 -17.925781 9.515625 -17.15625 C 9.054688 -16.507812 8.648438 -16 8.296875 -15.625 C 7.941406 -15.25 7.675781 -15.203125 7.5 -15.484375 C 7.289062 -15.648438 7.179688 -15.832031 7.171875 -16.03125 C 7.160156 -16.238281 7.195312 -16.460938 7.28125 -16.703125 C 7.425781 -17.367188 7.660156 -17.988281 7.984375 -18.5625 C 8.304688 -19.144531 8.660156 -19.71875 9.046875 -20.28125 C 9.160156 -20.46875 9.28125 -20.640625 9.40625 -20.796875 Z M 9.40625 -20.796875 "/></g></g></g><path stroke-linecap="butt" transform="matrix(1.505003, 0, 0, 1.5, 156.57603, 186.749988)" fill="none" stroke-linejoin="miter" d="M -0.00120363 0.0000081755 L 46.84774 0.0000081755 " stroke="#ffff" stroke-width="1" stroke-opacity="1" stroke-miterlimit="4"/><g fill="#ffff" fill-opacity="1"><g transform="translate(156.57318, 162.074989)"><g/></g></g><g clip-path="url(#5edfd7a775)"><path fill="#ffff" d="M 215.574219 171.015625 C 215.261719 171.203125 215.066406 171.492188 214.789062 172.148438 C 214.386719 173.074219 214.238281 173.890625 214.28125 174.792969 C 214.335938 175.789062 214.492188 176.355469 215.210938 178.066406 C 216.011719 179.960938 216.046875 180.140625 215.933594 181.5 C 215.882812 182.101562 215.835938 183.15625 215.835938 183.84375 C 215.828125 184.53125 215.804688 185.308594 215.777344 185.570312 L 215.730469 186.046875 L 215.277344 185.382812 C 214.378906 184.046875 213.082031 183 211.511719 182.320312 C 210.082031 181.703125 209.535156 181.679688 209.0625 182.222656 C 208.789062 182.539062 208.675781 182.902344 208.675781 183.511719 C 208.675781 184.890625 209.113281 185.667969 210.375 186.492188 C 211.046875 186.9375 212.878906 187.976562 214.125 188.625 C 214.878906 189.015625 215.15625 189.121094 215.414062 189.121094 L 215.746094 189.121094 L 215.800781 190.457031 C 215.941406 194.410156 216.636719 199.339844 217.429688 202.054688 C 217.5625 202.53125 217.632812 203.148438 217.550781 203.148438 C 217.527344 203.148438 217.308594 203.007812 217.042969 202.839844 C 216.386719 202.402344 214.726562 201.613281 213.898438 201.339844 C 211.921875 200.699219 210.230469 200.632812 209.636719 201.175781 C 209.234375 201.535156 209.144531 202.222656 209.421875 202.804688 C 209.648438 203.261719 210.417969 203.964844 211.03125 204.265625 C 212.078125 204.777344 213.257812 204.855469 215.164062 204.539062 C 216.628906 204.296875 217.542969 204.273438 217.917969 204.476562 C 218.144531 204.597656 218.214844 204.695312 218.339844 205.109375 C 218.765625 206.484375 219.511719 209.425781 219.964844 211.558594 C 220.078125 212.054688 220.203125 212.515625 220.25 212.578125 C 220.308594 212.644531 220.378906 213.242188 220.4375 214.199219 C 220.515625 215.519531 220.824219 218.601562 220.9375 219.136719 C 220.96875 219.296875 220.929688 219.273438 220.695312 218.988281 C 219.261719 217.261719 217.125 215.738281 215.542969 215.328125 C 213.929688 214.90625 212.644531 215.84375 213.160156 217.0625 C 213.316406 217.433594 213.875 218.007812 214.484375 218.421875 C 215.398438 219.023438 218.128906 220.34375 220.046875 221.097656 C 221.109375 221.511719 221.3125 221.6875 221.390625 222.265625 C 221.722656 224.847656 222.914062 231.28125 223.765625 235.109375 C 223.984375 236.074219 224.144531 236.882812 224.121094 236.90625 C 224.105469 236.929688 223.53125 236.542969 222.851562 236.054688 C 221.300781 234.929688 220.929688 234.6875 220.183594 234.320312 C 219.164062 233.804688 218.558594 233.625 217.472656 233.503906 C 216.921875 233.445312 216.417969 233.375 216.351562 233.34375 C 216.136719 233.269531 215.699219 233.464844 215.582031 233.691406 C 215.035156 234.742188 216.425781 236.816406 218.5 238.042969 C 220.089844 238.996094 223.390625 240.238281 224.445312 240.300781 C 224.828125 240.3125 224.941406 240.351562 224.988281 240.457031 C 225.019531 240.53125 225.484375 242.359375 226.023438 244.515625 C 227.523438 250.503906 228.34375 253.421875 229.28125 255.992188 L 229.726562 257.207031 L 229.726562 258.59375 C 229.726562 260.367188 229.855469 264.296875 229.953125 265.894531 C 230.082031 267.847656 230.335938 270.296875 230.421875 270.398438 C 230.535156 270.53125 230.835938 270.515625 230.917969 270.382812 C 230.949219 270.3125 230.957031 270.050781 230.925781 269.792969 C 230.84375 269.078125 230.640625 266.601562 230.554688 265.214844 C 230.464844 263.769531 230.367188 258.980469 230.429688 259.03125 C 230.441406 259.054688 230.625 259.460938 230.820312 259.9375 C 231.363281 261.257812 232.464844 263.660156 233.210938 265.15625 C 233.839844 266.414062 233.890625 266.496094 234.09375 266.496094 C 234.328125 266.496094 234.554688 266.292969 234.554688 266.082031 C 234.554688 266.007812 234.28125 265.382812 233.945312 264.695312 C 232.707031 262.160156 231.410156 259.21875 230.730469 257.410156 L 230.390625 256.503906 L 230.472656 253.226562 C 230.527344 251.421875 230.609375 248.140625 230.667969 245.949219 C 230.730469 243.746094 230.8125 240.214844 230.859375 238.105469 C 230.949219 233.457031 231.128906 230.207031 231.296875 230.066406 C 231.324219 230.042969 231.65625 229.976562 232.027344 229.929688 C 233.945312 229.671875 235.808594 228.957031 237.308594 227.902344 C 238.457031 227.09375 240.242188 225.179688 240.664062 224.304688 C 240.898438 223.820312 240.953125 223.238281 240.777344 222.914062 C 240.5 222.367188 239.675781 222.320312 238.289062 222.789062 C 236.125 223.511719 234.296875 224.6875 232.488281 226.5 C 232.019531 226.972656 231.6875 227.253906 231.6875 227.183594 C 231.6875 227.117188 231.777344 226.605469 231.882812 226.0625 C 232.554688 222.570312 233.703125 218.097656 234.675781 215.125 L 235.089844 213.867188 L 235.414062 213.675781 C 235.609375 213.566406 236.265625 213.359375 237.015625 213.179688 C 239.683594 212.523438 240.984375 212.070312 242.550781 211.242188 C 243.960938 210.503906 244.484375 210.050781 244.664062 209.394531 C 244.777344 209.023438 244.632812 208.625 244.316406 208.375 C 243.941406 208.089844 243.132812 208.050781 241.949219 208.269531 C 239.777344 208.65625 238.238281 209.328125 236.757812 210.511719 C 236.433594 210.765625 236.167969 210.96875 236.152344 210.960938 C 236.125 210.925781 237.082031 208.59375 237.640625 207.359375 C 238.265625 205.96875 239.570312 203.339844 240.265625 202.070312 C 240.605469 201.453125 240.792969 201.1875 240.882812 201.1875 C 240.960938 201.1875 241.066406 201.144531 241.109375 201.089844 C 241.230469 200.933594 242.308594 200.449219 242.898438 200.285156 C 243.1875 200.203125 243.863281 200.027344 244.398438 199.90625 C 246.476562 199.425781 247.804688 198.851562 248.632812 198.082031 C 249.53125 197.238281 249.660156 196.511719 249.015625 195.851562 C 248.664062 195.488281 248.105469 195.335938 247.5 195.457031 C 246.488281 195.652344 243.84375 197.160156 242.746094 198.164062 C 242.558594 198.339844 242.46875 198.382812 242.507812 198.300781 C 242.527344 198.226562 243.238281 197.148438 244.074219 195.902344 C 244.921875 194.664062 245.804688 193.332031 246.039062 192.953125 C 246.558594 192.117188 247.238281 191.476562 248.558594 190.585938 C 249.929688 189.660156 251.085938 188.496094 252.003906 187.117188 C 252.707031 186.054688 252.511719 185.320312 251.46875 185.15625 C 250.714844 185.035156 249.773438 185.570312 248.535156 186.824219 C 247.183594 188.1875 246.453125 189.257812 245.847656 190.75 C 245.59375 191.394531 245.515625 191.695312 245.507812 192.035156 L 245.5 192.480469 L 244.023438 194.664062 C 243.207031 195.871094 242.492188 196.941406 242.429688 197.054688 C 242.242188 197.410156 242.195312 197.289062 242.304688 196.71875 C 242.421875 196.082031 242.535156 192.683594 242.46875 191.792969 C 242.378906 190.675781 241.964844 189.800781 241.441406 189.660156 C 240.984375 189.53125 240.6875 189.726562 240.347656 190.40625 C 240.191406 190.714844 240.023438 191.152344 239.972656 191.378906 C 239.699219 192.613281 240.078125 196.597656 240.710938 199.207031 L 240.832031 199.679688 L 240.0625 201.054688 C 238.5625 203.746094 237.050781 206.921875 235.867188 209.882812 L 235.269531 211.386719 L 235.21875 210.222656 C 235.089844 207.070312 234.59375 205.238281 233.597656 204.191406 C 232.941406 203.503906 232.296875 203.285156 231.753906 203.566406 C 231.316406 203.796875 231.234375 204.046875 231.234375 205.1875 C 231.234375 206.234375 231.296875 206.792969 231.507812 207.710938 C 231.695312 208.503906 232.171875 210.117188 232.425781 210.8125 C 232.75 211.6875 233.753906 213.648438 234.035156 213.972656 C 234.261719 214.226562 234.269531 214.257812 234.183594 214.523438 C 232.820312 218.796875 231.523438 223.996094 230.964844 227.394531 C 230.835938 228.164062 230.820312 228.203125 230.753906 227.960938 C 230.246094 226.097656 229.394531 224.109375 228.683594 223.097656 C 227.976562 222.085938 227.160156 221.324219 226.800781 221.324219 C 226.148438 221.324219 225.894531 222.691406 226.285156 224.046875 C 226.519531 224.832031 227.433594 226.890625 227.898438 227.683594 C 228.367188 228.464844 228.894531 229.121094 229.558594 229.734375 C 230.035156 230.179688 230.132812 230.238281 230.335938 230.207031 L 230.578125 230.171875 L 230.527344 230.699219 C 230.496094 230.992188 230.457031 231.535156 230.433594 231.914062 C 230.375 232.832031 230.375 232.839844 230.101562 232.605469 C 229.808594 232.367188 229.417969 232.289062 229.023438 232.410156 C 228.78125 232.476562 228.535156 232.675781 227.976562 233.246094 C 227.128906 234.113281 226.472656 235.066406 225.726562 236.511719 C 225.273438 237.386719 225.207031 237.484375 225.160156 237.320312 C 225.132812 237.214844 224.859375 236 224.558594 234.636719 C 223.667969 230.636719 222.957031 226.800781 222.257812 222.230469 C 222.175781 221.671875 222.082031 221.121094 222.0625 221.015625 C 222.03125 220.84375 222.082031 220.789062 222.535156 220.496094 C 222.839844 220.300781 223.410156 219.785156 223.917969 219.257812 C 225.0625 218.066406 226.171875 216.964844 227.335938 215.855469 C 228.390625 214.847656 228.894531 214.152344 228.894531 213.714844 C 228.894531 212.886719 227.953125 212.742188 226.785156 213.382812 C 225.085938 214.3125 223.742188 215.8125 222.332031 218.367188 C 222.070312 218.835938 221.847656 219.207031 221.835938 219.191406 C 221.78125 219.136719 221.511719 216.921875 221.375 215.480469 C 221.199219 213.625 221.207031 210.179688 221.382812 208.542969 C 221.742188 205.117188 222.492188 201.574219 223.878906 196.738281 C 224.761719 193.664062 224.882812 193.285156 225.035156 193.242188 C 225.101562 193.226562 225.539062 193.128906 225.992188 193.042969 C 227.160156 192.8125 227.898438 192.546875 229.5 191.808594 C 231.574219 190.84375 231.953125 190.539062 231.953125 189.847656 C 231.953125 189.507812 231.929688 189.460938 231.621094 189.191406 C 231.175781 188.792969 230.429688 188.566406 229.613281 188.566406 C 228.933594 188.566406 228.445312 188.699219 227.6875 189.09375 C 227.25 189.320312 226.996094 189.507812 226.082031 190.253906 L 225.855469 190.441406 L 225.917969 190.253906 C 225.945312 190.148438 226.21875 189.417969 226.519531 188.632812 C 226.996094 187.410156 227.355469 186.527344 228.230469 184.5 C 228.414062 184.09375 228.34375 184.117188 229.652344 183.996094 C 232.199219 183.761719 233.988281 183.390625 234.863281 182.929688 C 235.816406 182.425781 236.085938 181.800781 235.609375 181.25 C 235.265625 180.859375 234.984375 180.789062 233.648438 180.789062 C 232.773438 180.789062 232.359375 180.820312 232.011719 180.917969 C 231.296875 181.121094 230.40625 181.476562 229.929688 181.761719 C 229.695312 181.90625 229.5 181.988281 229.5 181.949219 C 229.5 181.84375 230.316406 180.511719 231.054688 179.394531 C 231.582031 178.601562 231.808594 178.339844 232.457031 177.773438 C 234.222656 176.226562 234.699219 175.632812 235.269531 174.234375 C 235.753906 173.058594 235.957031 171.988281 235.761719 171.625 C 235.65625 171.429688 235.21875 171.355469 234.917969 171.484375 C 234.613281 171.613281 233.640625 172.375 233.167969 172.871094 C 232.691406 173.367188 232.253906 174.011719 231.953125 174.671875 C 231.597656 175.433594 231.160156 176.84375 231.160156 177.207031 C 231.160156 177.59375 230.902344 178.089844 230.058594 179.320312 C 229.703125 179.839844 229.21875 180.617188 228.988281 181.046875 L 228.558594 181.832031 L 228.511719 180.519531 C 228.429688 178.234375 228.019531 177.011719 226.980469 175.957031 C 226.332031 175.300781 225.808594 175.1875 225.386719 175.601562 C 225.070312 175.917969 225.003906 176.289062 225.109375 177.117188 C 225.214844 177.925781 225.320312 178.339844 225.703125 179.433594 C 226 180.261719 226.980469 182.707031 227.320312 183.453125 L 227.53125 183.933594 L 226.867188 185.488281 C 226.25 186.949219 225.855469 187.925781 225.253906 189.53125 L 224.996094 190.203125 L 224.949219 189.222656 C 224.84375 187.214844 224.382812 185.472656 223.667969 184.347656 C 223.246094 183.691406 222.582031 183.4375 222.167969 183.769531 C 221.796875 184.054688 221.699219 184.453125 221.714844 185.578125 C 221.742188 187.273438 222.007812 188.4375 222.800781 190.328125 C 223.367188 191.695312 223.691406 192.628906 223.691406 192.921875 C 223.691406 193.042969 223.742188 193.203125 223.8125 193.277344 C 223.925781 193.40625 223.886719 193.574219 223.320312 195.546875 C 221.683594 201.292969 220.785156 205.527344 220.492188 208.957031 C 220.4375 209.558594 220.378906 209.980469 220.347656 209.898438 C 220.324219 209.816406 220.128906 209.03125 219.925781 208.164062 C 219.722656 207.289062 219.367188 205.941406 219.132812 205.148438 L 218.71875 203.722656 L 219.050781 203.226562 C 219.230469 202.953125 219.546875 202.378906 219.761719 201.941406 C 219.964844 201.507812 220.363281 200.757812 220.636719 200.285156 C 221.191406 199.296875 221.367188 198.890625 221.628906 197.871094 C 221.835938 197.054688 221.925781 196.28125 221.847656 195.878906 C 221.742188 195.320312 221.199219 195.066406 220.6875 195.335938 C 220.199219 195.59375 219.292969 196.71875 218.824219 197.636719 C 218.574219 198.136719 218.183594 199.222656 217.988281 199.9375 C 217.859375 200.421875 217.84375 200.441406 217.789062 200.238281 C 217.550781 199.332031 217.007812 195.472656 216.789062 193.15625 C 216.636719 191.5 216.546875 187.839844 216.652344 187.839844 C 216.789062 187.839844 219.957031 184.703125 220.734375 183.804688 C 221.699219 182.683594 222.136719 182.054688 222.566406 181.167969 C 223.042969 180.179688 223.191406 179.597656 223.199219 178.746094 C 223.199219 177.960938 223.109375 177.773438 222.671875 177.691406 C 222.226562 177.605469 221.878906 177.773438 221.214844 178.375 C 219.675781 179.777344 218.234375 181.726562 217.113281 183.902344 L 216.675781 184.765625 L 216.675781 184.023438 C 216.675781 183.609375 216.710938 182.765625 216.757812 182.148438 C 216.800781 181.519531 216.847656 180.527344 216.863281 179.921875 C 216.878906 179.320312 216.992188 177.820312 217.121094 176.589844 C 217.511719 172.832031 217.421875 171.800781 216.636719 171.113281 C 216.320312 170.828125 215.933594 170.796875 215.574219 171.015625 Z M 216.320312 172.058594 C 216.46875 172.386719 216.484375 172.53125 216.476562 173.699219 C 216.476562 174.5 216.410156 175.503906 216.3125 176.363281 C 216.222656 177.117188 216.144531 177.78125 216.144531 177.824219 C 216.144531 178 216.019531 177.773438 215.777344 177.183594 C 215.261719 175.941406 215.042969 174.945312 215.121094 174.207031 C 215.195312 173.480469 215.640625 172.167969 215.933594 171.792969 C 216.070312 171.632812 216.144531 171.6875 216.320312 172.058594 Z M 234.933594 172.578125 C 234.933594 172.789062 234.613281 173.640625 234.238281 174.410156 C 233.832031 175.253906 233.726562 175.414062 233.167969 175.957031 C 232.828125 176.296875 232.441406 176.640625 232.3125 176.738281 L 232.078125 176.90625 L 232.261719 176.289062 C 232.367188 175.941406 232.625 175.308594 232.835938 174.871094 C 233.179688 174.152344 233.289062 174.003906 233.996094 173.300781 C 234.691406 172.621094 234.933594 172.425781 234.933594 172.578125 Z M 226.472656 176.527344 C 226.671875 176.730469 226.925781 177.070312 227.03125 177.269531 C 227.289062 177.742188 227.589844 178.867188 227.6875 179.734375 C 227.78125 180.546875 227.789062 182.183594 227.703125 182.183594 C 227.554688 182.183594 226.261719 178.84375 225.984375 177.75 C 225.886719 177.359375 225.804688 176.839844 225.804688 176.597656 C 225.804688 176.195312 225.816406 176.152344 225.960938 176.152344 C 226.042969 176.152344 226.269531 176.316406 226.472656 176.527344 Z M 222.40625 178.777344 C 222.40625 179.152344 222.113281 180.164062 221.835938 180.746094 C 221.375 181.71875 220.65625 182.691406 219.414062 184.003906 C 218.566406 184.898438 217.121094 186.28125 217.074219 186.234375 C 217.058594 186.210938 217.148438 185.933594 217.277344 185.609375 C 218 183.792969 219.488281 181.414062 220.785156 179.996094 C 221.335938 179.402344 222.25 178.566406 222.347656 178.566406 C 222.378906 178.566406 222.40625 178.664062 222.40625 178.777344 Z M 234.480469 181.65625 C 234.707031 181.703125 234.902344 181.753906 234.925781 181.777344 C 234.945312 181.800781 234.871094 181.898438 234.75 181.996094 C 234.480469 182.214844 233.40625 182.570312 232.40625 182.78125 C 231.6875 182.929688 229.5 183.1875 229.4375 183.128906 C 229.355469 183.042969 230.910156 182.191406 231.613281 181.929688 C 232.464844 181.613281 233.648438 181.5 234.480469 181.65625 Z M 210.675781 182.902344 C 212.449219 183.558594 213.679688 184.546875 214.796875 186.203125 C 215.140625 186.710938 215.496094 187.222656 215.59375 187.335938 C 215.714844 187.488281 215.769531 187.644531 215.769531 187.878906 C 215.769531 188.179688 215.753906 188.210938 215.550781 188.253906 C 215.359375 188.292969 215.105469 188.1875 214.019531 187.613281 C 211.070312 186.054688 209.996094 185.359375 209.71875 184.816406 C 209.394531 184.183594 209.363281 183.082031 209.664062 182.78125 C 209.832031 182.613281 209.945312 182.628906 210.675781 182.902344 Z M 223.101562 185.097656 C 223.765625 186.324219 224.089844 187.960938 224.050781 189.914062 L 224.03125 191.046875 L 223.675781 190.214844 C 222.90625 188.40625 222.640625 187.375 222.582031 185.910156 C 222.535156 184.878906 222.582031 184.492188 222.730469 184.546875 C 222.777344 184.558594 222.945312 184.808594 223.101562 185.097656 Z M 251.523438 186.242188 C 251.394531 186.621094 250.285156 188.007812 249.597656 188.671875 C 249.230469 189.023438 248.585938 189.539062 248.171875 189.808594 C 247.757812 190.089844 247.28125 190.421875 247.125 190.546875 C 246.957031 190.675781 246.816406 190.765625 246.800781 190.75 C 246.785156 190.738281 246.859375 190.539062 246.972656 190.316406 C 247.628906 189.011719 249.222656 187.132812 250.261719 186.421875 C 250.722656 186.105469 250.894531 186.039062 251.28125 186.039062 C 251.597656 186.03125 251.597656 186.03125 251.523438 186.242188 Z M 230.449219 189.539062 C 230.652344 189.597656 230.886719 189.695312 230.972656 189.757812 C 231.121094 189.863281 231.121094 189.871094 230.949219 190.050781 C 230.667969 190.34375 228.171875 191.527344 227.125 191.867188 C 226.429688 192.085938 225.417969 192.3125 225.367188 192.253906 C 225.304688 192.191406 227.003906 190.578125 227.507812 190.207031 C 227.984375 189.871094 228.535156 189.589844 228.933594 189.492188 C 229.328125 189.402344 230.058594 189.417969 230.449219 189.539062 Z M 241.375 190.652344 C 241.441406 190.746094 241.546875 191.0625 241.617188 191.347656 C 241.722656 191.800781 241.730469 192.183594 241.691406 194.023438 C 241.667969 195.207031 241.617188 196.363281 241.578125 196.589844 C 241.421875 197.410156 241.328125 197.804688 241.300781 197.773438 C 241.230469 197.703125 240.976562 195.984375 240.863281 194.855469 C 240.664062 192.855469 240.652344 192.417969 240.734375 191.816406 C 240.816406 191.226562 241.082031 190.480469 241.203125 190.480469 C 241.238281 190.480469 241.316406 190.554688 241.375 190.652344 Z M 221.050781 196.414062 C 221.050781 196.800781 220.6875 198.226562 220.445312 198.796875 C 220.316406 199.117188 220.039062 199.660156 219.828125 199.996094 C 219.617188 200.34375 219.230469 201.054688 218.96875 201.582031 C 218.703125 202.117188 218.460938 202.546875 218.441406 202.546875 C 218.3125 202.546875 218.695312 200.488281 219.019531 199.460938 C 219.269531 198.699219 219.796875 197.5625 220.128906 197.117188 C 220.371094 196.777344 220.914062 196.210938 220.988281 196.210938 C 221.019531 196.210938 221.050781 196.300781 221.050781 196.414062 Z M 248.324219 196.300781 C 248.585938 196.421875 248.648438 196.703125 248.464844 197.035156 C 248.261719 197.410156 247.386719 198.042969 246.632812 198.359375 C 246.039062 198.609375 242.6875 199.484375 242.527344 199.433594 C 242.429688 199.402344 243.425781 198.535156 244.175781 198.015625 C 245.011719 197.425781 246.488281 196.597656 247.078125 196.386719 C 247.621094 196.195312 248.027344 196.167969 248.324219 196.300781 Z M 212.554688 201.867188 C 212.925781 201.949219 213.484375 202.109375 213.800781 202.214844 C 214.425781 202.425781 216.371094 203.359375 216.371094 203.445312 C 216.371094 203.570312 214.132812 203.867188 213.203125 203.859375 C 212.140625 203.851562 211.703125 203.730469 210.949219 203.242188 C 210.085938 202.667969 209.824219 201.867188 210.449219 201.695312 C 210.714844 201.617188 211.859375 201.710938 212.554688 201.867188 Z M 232.742188 204.5 C 233.324219 204.953125 233.792969 205.894531 234.019531 207.070312 C 234.296875 208.488281 234.472656 211.113281 234.367188 212.238281 L 234.3125 212.839844 L 233.792969 211.785156 C 233.25 210.691406 232.75 209.28125 232.351562 207.710938 C 232.164062 206.964844 232.117188 206.605469 232.085938 205.625 C 232.066406 204.976562 232.066406 204.386719 232.09375 204.320312 C 232.15625 204.160156 232.390625 204.226562 232.742188 204.5 Z M 243.667969 209.003906 C 243.925781 209.078125 243.871094 209.25 243.472656 209.636719 C 243.019531 210.074219 240.855469 211.167969 239.667969 211.550781 C 238.78125 211.84375 235.835938 212.597656 235.785156 212.554688 C 235.738281 212.5 236.894531 211.476562 237.542969 210.984375 C 238.886719 209.980469 240.546875 209.347656 242.703125 209.007812 C 243.019531 208.957031 243.488281 208.957031 243.667969 209.003906 Z M 227.914062 213.917969 C 227.914062 214.070312 226.933594 215.109375 226.035156 215.917969 C 225.5 216.398438 224.601562 217.289062 224.050781 217.886719 C 223.5 218.480469 223.035156 218.957031 223.019531 218.941406 C 222.964844 218.894531 223.9375 217.3125 224.398438 216.6875 C 225.28125 215.503906 226.324219 214.566406 227.273438 214.109375 C 227.824219 213.84375 227.914062 213.820312 227.914062 213.917969 Z M 216.144531 216.476562 C 217.359375 217.042969 218.605469 217.953125 219.429688 218.851562 C 219.910156 219.394531 220.550781 220.261719 220.5 220.3125 C 220.386719 220.433594 216.128906 218.457031 215.089844 217.804688 C 214.28125 217.289062 213.808594 216.710938 213.957031 216.421875 C 214.09375 216.167969 214.273438 216.113281 214.902344 216.144531 C 215.414062 216.167969 215.59375 216.210938 216.144531 216.476562 Z M 227.273438 222.695312 C 227.953125 223.453125 228.761719 224.832031 229.226562 226.023438 C 229.46875 226.625 230.117188 228.859375 230.082031 228.964844 C 230.035156 229.105469 229.152344 228.050781 228.730469 227.359375 C 228.1875 226.460938 227.265625 224.410156 227.078125 223.671875 C 226.925781 223.089844 226.890625 222.457031 226.996094 222.457031 C 227.03125 222.457031 227.160156 222.5625 227.273438 222.695312 Z M 240.03125 223.398438 C 240.160156 223.714844 239.203125 225.050781 238.09375 226.113281 C 236.96875 227.191406 235.714844 227.976562 234.320312 228.488281 C 233.460938 228.804688 231.386719 229.242188 231.386719 229.113281 C 231.386719 229.007812 232.3125 227.921875 233.039062 227.183594 C 234.886719 225.292969 236.984375 223.996094 239.117188 223.4375 C 239.777344 223.261719 239.980469 223.253906 240.03125 223.398438 Z M 229.664062 233.34375 C 229.847656 233.617188 229.621094 234.808594 229.257812 235.539062 C 228.949219 236.152344 228.761719 236.324219 227.90625 236.753906 C 226.972656 237.214844 226.332031 237.484375 226.269531 237.433594 C 226.203125 237.359375 227.328125 235.375 227.792969 234.75 C 228.058594 234.394531 228.496094 233.894531 228.777344 233.632812 C 229.183594 233.238281 229.304688 233.164062 229.4375 233.210938 C 229.539062 233.238281 229.636719 233.300781 229.664062 233.34375 Z M 217.457031 234.371094 C 218.769531 234.507812 219.804688 234.960938 221.390625 236.074219 C 221.886719 236.429688 222.597656 236.929688 222.972656 237.183594 C 223.789062 237.742188 224.558594 238.511719 224.617188 238.8125 C 224.640625 238.933594 224.6875 239.113281 224.714844 239.226562 C 224.761719 239.417969 224.746094 239.425781 224.460938 239.425781 C 223.917969 239.425781 221.117188 238.4375 219.804688 237.789062 C 218.21875 236.996094 217.097656 236.015625 216.570312 234.972656 C 216.238281 234.304688 216.222656 234.191406 216.507812 234.25 C 216.621094 234.273438 217.050781 234.324219 217.457031 234.371094 Z M 230.179688 239.613281 C 230.117188 243.300781 229.953125 249.402344 229.808594 253.226562 L 229.757812 254.695312 L 229.363281 253.488281 C 228.761719 251.609375 228.203125 249.613281 227.34375 246.1875 C 226.035156 240.984375 225.863281 240.230469 225.871094 239.863281 C 225.878906 239.613281 225.847656 239.492188 225.757812 239.4375 C 225.699219 239.402344 225.621094 239.242188 225.597656 239.078125 C 225.5625 238.78125 225.5625 238.78125 225.96875 238.578125 C 226.1875 238.472656 226.585938 238.292969 226.859375 238.179688 C 227.832031 237.773438 229.023438 237.152344 229.328125 236.898438 C 229.507812 236.738281 229.757812 236.40625 229.921875 236.074219 C 230.082031 235.765625 230.222656 235.519531 230.230469 235.523438 C 230.238281 235.53125 230.214844 237.371094 230.179688 239.613281 Z M 230.179688 239.613281 " fill-opacity="1" fill-rule="nonzero"/></g></svg>